<mxfile host="app.diagrams.net" modified="2023-03-30T16:54:09.666Z" agent="Mozilla/5.0 (Macintosh; Intel Mac OS X 10_15_7) AppleWebKit/605.1.15 (KHTML, like Gecko) Version/16.3 Safari/605.1.15" version="21.1.2" etag="T6KLQwHUmMMpHOtEjdTM" type="github">
  <diagram name="Page-1" id="ENmpoJacz5iL7LTfkVuF">
    <mxGraphModel>
      <root>
        <mxCell id="0" />
        <mxCell id="1" parent="0" />
      </root>
    </mxGraphModel>
  </diagram>
</mxfile>
